<mxfile host="app.diagrams.net" modified="2023-06-17T13:43:56.157Z" agent="Mozilla/5.0 (Windows NT 10.0; Win64; x64; rv:109.0) Gecko/20100101 Firefox/114.0" etag="8fYJ4l7uHqPjRXnQXpO7" version="21.4.0">
  <diagram id="bltTcGJ1lwfVIASEuTEK" name="Kubernetes-cluster">
    <mxGraphModel dx="1478" dy="839" grid="1" gridSize="10" guides="1" tooltips="1" connect="1" arrows="1" fold="1" page="1" pageScale="1" pageWidth="850" pageHeight="1100" math="0" shadow="0">
      <root>
        <mxCell id="0" />
        <mxCell id="1" parent="0" />
        <mxCell id="HZlBNXC_4x1dJygbH-n3-1" value="Kubernetes Cluster" style="rounded=0;whiteSpace=wrap;html=1;align=center;verticalAlign=top;movable=0;resizable=0;rotatable=0;deletable=0;editable=0;locked=1;connectable=0;" vertex="1" parent="1">
          <mxGeometry x="30" y="158" width="770" height="852" as="geometry" />
        </mxCell>
        <mxCell id="HZlBNXC_4x1dJygbH-n3-2" value="DevOps with Docker: Exercise 3.11" style="text;whiteSpace=wrap;html=1;fontSize=14;" vertex="1" parent="1">
          <mxGeometry width="320" height="30" as="geometry" />
        </mxCell>
        <mxCell id="HZlBNXC_4x1dJygbH-n3-61" style="edgeStyle=orthogonalEdgeStyle;rounded=0;orthogonalLoop=1;jettySize=auto;html=1;exitX=0.5;exitY=1;exitDx=0;exitDy=0;exitPerimeter=0;entryX=0.995;entryY=0.63;entryDx=0;entryDy=0;entryPerimeter=0;fillColor=#d80073;strokeColor=#A50040;" edge="1" parent="1" source="HZlBNXC_4x1dJygbH-n3-93" target="HZlBNXC_4x1dJygbH-n3-43">
          <mxGeometry relative="1" as="geometry">
            <mxPoint x="729.5000000000002" y="150" as="sourcePoint" />
          </mxGeometry>
        </mxCell>
        <mxCell id="HZlBNXC_4x1dJygbH-n3-20" value="Master Node" style="rounded=1;whiteSpace=wrap;html=1;labelPosition=center;verticalLabelPosition=bottom;align=center;verticalAlign=top;" vertex="1" parent="1">
          <mxGeometry x="480" y="188" width="200" height="270" as="geometry" />
        </mxCell>
        <mxCell id="HZlBNXC_4x1dJygbH-n3-29" value="API" style="rounded=1;whiteSpace=wrap;html=1;" vertex="1" parent="1">
          <mxGeometry x="520" y="207" width="120" height="40" as="geometry" />
        </mxCell>
        <mxCell id="HZlBNXC_4x1dJygbH-n3-30" value="Scheduler" style="rounded=1;whiteSpace=wrap;html=1;" vertex="1" parent="1">
          <mxGeometry x="520" y="257" width="120" height="40" as="geometry" />
        </mxCell>
        <mxCell id="HZlBNXC_4x1dJygbH-n3-31" value="Contoller Manager" style="rounded=1;whiteSpace=wrap;html=1;" vertex="1" parent="1">
          <mxGeometry x="520" y="307" width="120" height="40" as="geometry" />
        </mxCell>
        <mxCell id="HZlBNXC_4x1dJygbH-n3-32" value="etcd" style="rounded=1;whiteSpace=wrap;html=1;" vertex="1" parent="1">
          <mxGeometry x="520" y="357" width="120" height="40" as="geometry" />
        </mxCell>
        <mxCell id="HZlBNXC_4x1dJygbH-n3-49" style="rounded=0;orthogonalLoop=1;jettySize=auto;html=1;exitX=0.5;exitY=1;exitDx=0;exitDy=0;exitPerimeter=0;fontColor=#FFFFFF;fillColor=#d80073;strokeColor=#A50040;" edge="1" parent="1">
          <mxGeometry relative="1" as="geometry">
            <mxPoint x="664" y="548" as="targetPoint" />
            <mxPoint x="664" y="466" as="sourcePoint" />
          </mxGeometry>
        </mxCell>
        <mxCell id="HZlBNXC_4x1dJygbH-n3-43" value="" style="sketch=0;html=1;dashed=0;whitespace=wrap;fillColor=#2875E2;strokeColor=#ffffff;points=[[0.005,0.63,0],[0.1,0.2,0],[0.9,0.2,0],[0.5,0,0],[0.995,0.63,0],[0.72,0.99,0],[0.5,1,0],[0.28,0.99,0]];verticalLabelPosition=bottom;align=center;verticalAlign=top;shape=mxgraph.kubernetes.icon;prIcon=api" vertex="1" parent="1">
          <mxGeometry x="640" y="418" width="50" height="48" as="geometry" />
        </mxCell>
        <mxCell id="HZlBNXC_4x1dJygbH-n3-51" style="edgeStyle=orthogonalEdgeStyle;rounded=0;orthogonalLoop=1;jettySize=auto;html=1;entryX=0.5;entryY=0;entryDx=0;entryDy=0;entryPerimeter=0;fillColor=#d80073;strokeColor=#A50040;" edge="1" parent="1" target="HZlBNXC_4x1dJygbH-n3-46">
          <mxGeometry relative="1" as="geometry">
            <mxPoint x="344" y="548" as="sourcePoint" />
          </mxGeometry>
        </mxCell>
        <mxCell id="HZlBNXC_4x1dJygbH-n3-48" value="" style="shape=link;html=1;rounded=0;" edge="1" parent="1">
          <mxGeometry width="100" relative="1" as="geometry">
            <mxPoint x="70" y="549" as="sourcePoint" />
            <mxPoint x="800" y="549" as="targetPoint" />
          </mxGeometry>
        </mxCell>
        <mxCell id="HZlBNXC_4x1dJygbH-n3-72" value="" style="group" vertex="1" connectable="0" parent="1">
          <mxGeometry x="70" y="640" width="320" height="338" as="geometry" />
        </mxCell>
        <mxCell id="HZlBNXC_4x1dJygbH-n3-3" value="Worker node1" style="rounded=1;whiteSpace=wrap;html=1;labelPosition=center;verticalLabelPosition=bottom;align=center;verticalAlign=top;" vertex="1" parent="HZlBNXC_4x1dJygbH-n3-72">
          <mxGeometry y="14.083333333333334" width="320" height="323.9166666666667" as="geometry" />
        </mxCell>
        <mxCell id="HZlBNXC_4x1dJygbH-n3-15" value="&lt;div&gt;VOLUME - &lt;br&gt;&lt;/div&gt;&lt;div&gt;gamedata&lt;br&gt;&lt;/div&gt;" style="rounded=1;whiteSpace=wrap;html=1;" vertex="1" parent="HZlBNXC_4x1dJygbH-n3-72">
          <mxGeometry x="204" y="260.0722222222222" width="80" height="37.55555555555556" as="geometry" />
        </mxCell>
        <mxCell id="HZlBNXC_4x1dJygbH-n3-45" value="" style="sketch=0;html=1;dashed=0;whitespace=wrap;fillColor=#2875E2;strokeColor=#ffffff;points=[[0.005,0.63,0],[0.1,0.2,0],[0.9,0.2,0],[0.5,0,0],[0.995,0.63,0],[0.72,0.99,0],[0.5,1,0],[0.28,0.99,0]];verticalLabelPosition=bottom;align=center;verticalAlign=top;shape=mxgraph.kubernetes.icon;prIcon=k_proxy" vertex="1" parent="HZlBNXC_4x1dJygbH-n3-72">
          <mxGeometry x="139" width="50" height="45.06666666666666" as="geometry" />
        </mxCell>
        <mxCell id="HZlBNXC_4x1dJygbH-n3-46" value="" style="sketch=0;html=1;dashed=0;whitespace=wrap;fillColor=#2875E2;strokeColor=#ffffff;points=[[0.005,0.63,0],[0.1,0.2,0],[0.9,0.2,0],[0.5,0,0],[0.995,0.63,0],[0.72,0.99,0],[0.5,1,0],[0.28,0.99,0]];verticalLabelPosition=bottom;align=center;verticalAlign=top;shape=mxgraph.kubernetes.icon;prIcon=kubelet" vertex="1" parent="HZlBNXC_4x1dJygbH-n3-72">
          <mxGeometry x="249" width="50" height="45.06666666666666" as="geometry" />
        </mxCell>
        <mxCell id="HZlBNXC_4x1dJygbH-n3-55" value="Container runtime, controlled by kubelet" style="shape=image;html=1;verticalAlign=top;verticalLabelPosition=bottom;labelBackgroundColor=none;imageAspect=0;aspect=fixed;image=https://cdn1.iconfinder.com/data/icons/unicons-line-vol-3/24/docker-128.png;align=left;" vertex="1" parent="HZlBNXC_4x1dJygbH-n3-72">
          <mxGeometry x="19" y="262.8888888888889" width="38.49444444444445" height="38.49444444444445" as="geometry" />
        </mxCell>
        <mxCell id="HZlBNXC_4x1dJygbH-n3-57" value="" style="group" vertex="1" connectable="0" parent="HZlBNXC_4x1dJygbH-n3-72">
          <mxGeometry x="19" y="165.24444444444444" width="120" height="56.333333333333336" as="geometry" />
        </mxCell>
        <mxCell id="HZlBNXC_4x1dJygbH-n3-4" value="Pod" style="rounded=1;whiteSpace=wrap;html=1;labelPosition=center;verticalLabelPosition=bottom;align=center;verticalAlign=top;" vertex="1" parent="HZlBNXC_4x1dJygbH-n3-57">
          <mxGeometry y="-1.8777777777777778" width="120" height="56.333333333333336" as="geometry" />
        </mxCell>
        <mxCell id="HZlBNXC_4x1dJygbH-n3-5" value="Blog - container" style="rounded=1;whiteSpace=wrap;html=1;" vertex="1" parent="HZlBNXC_4x1dJygbH-n3-57">
          <mxGeometry x="20" y="8.45" width="80" height="37.55555555555556" as="geometry" />
        </mxCell>
        <mxCell id="HZlBNXC_4x1dJygbH-n3-58" value="" style="group" vertex="1" connectable="0" parent="HZlBNXC_4x1dJygbH-n3-72">
          <mxGeometry x="179" y="167.12222222222223" width="120" height="56.333333333333336" as="geometry" />
        </mxCell>
        <mxCell id="HZlBNXC_4x1dJygbH-n3-9" value="Pod" style="rounded=1;whiteSpace=wrap;html=1;labelPosition=center;verticalLabelPosition=bottom;align=center;verticalAlign=top;" vertex="1" parent="HZlBNXC_4x1dJygbH-n3-58">
          <mxGeometry y="-1.8777777777777778" width="120" height="56.333333333333336" as="geometry" />
        </mxCell>
        <mxCell id="HZlBNXC_4x1dJygbH-n3-11" value="Gameserver - container" style="rounded=1;whiteSpace=wrap;html=1;" vertex="1" parent="HZlBNXC_4x1dJygbH-n3-58">
          <mxGeometry x="20" y="8.45" width="80" height="37.55555555555556" as="geometry" />
        </mxCell>
        <mxCell id="HZlBNXC_4x1dJygbH-n3-41" style="edgeStyle=orthogonalEdgeStyle;rounded=0;orthogonalLoop=1;jettySize=auto;html=1;exitX=0.75;exitY=1;exitDx=0;exitDy=0;entryX=0.813;entryY=0;entryDx=0;entryDy=0;entryPerimeter=0;" edge="1" parent="HZlBNXC_4x1dJygbH-n3-72" source="HZlBNXC_4x1dJygbH-n3-9" target="HZlBNXC_4x1dJygbH-n3-15">
          <mxGeometry relative="1" as="geometry" />
        </mxCell>
        <mxCell id="HZlBNXC_4x1dJygbH-n3-104" value="&lt;div&gt;VOLUME - &lt;br&gt;&lt;/div&gt;&lt;div&gt;blog&lt;br&gt;&lt;/div&gt;" style="rounded=1;whiteSpace=wrap;html=1;" vertex="1" parent="HZlBNXC_4x1dJygbH-n3-72">
          <mxGeometry x="60" y="262.8888888888889" width="80" height="37.55555555555556" as="geometry" />
        </mxCell>
        <mxCell id="HZlBNXC_4x1dJygbH-n3-105" style="edgeStyle=orthogonalEdgeStyle;rounded=0;orthogonalLoop=1;jettySize=auto;html=1;exitX=0.849;exitY=1.006;exitDx=0;exitDy=0;entryX=0.75;entryY=0;entryDx=0;entryDy=0;exitPerimeter=0;" edge="1" parent="HZlBNXC_4x1dJygbH-n3-72" source="HZlBNXC_4x1dJygbH-n3-4" target="HZlBNXC_4x1dJygbH-n3-104">
          <mxGeometry relative="1" as="geometry" />
        </mxCell>
        <mxCell id="HZlBNXC_4x1dJygbH-n3-92" value="Blog and gameserver users, http traffic to applications from internet" style="outlineConnect=0;dashed=0;verticalLabelPosition=top;verticalAlign=bottom;align=center;html=1;shape=mxgraph.aws3.users;fillColor=#D2D3D3;gradientColor=none;labelPosition=center;" vertex="1" parent="1">
          <mxGeometry x="201" y="78" width="66" height="63" as="geometry" />
        </mxCell>
        <mxCell id="HZlBNXC_4x1dJygbH-n3-93" value="Cluster administration via api" style="outlineConnect=0;dashed=0;verticalLabelPosition=top;verticalAlign=bottom;align=center;html=1;shape=mxgraph.aws3.user;fillColor=#D2D3D3;gradientColor=none;labelPosition=center;" vertex="1" parent="1">
          <mxGeometry x="690" y="76" width="45" height="63" as="geometry" />
        </mxCell>
        <mxCell id="HZlBNXC_4x1dJygbH-n3-98" value="" style="endArrow=none;dashed=1;html=1;rounded=0;fillColor=#60a917;strokeColor=#2D7600;strokeWidth=3;endFill=0;exitX=0.5;exitY=1;exitDx=0;exitDy=0;exitPerimeter=0;" edge="1" parent="1" source="HZlBNXC_4x1dJygbH-n3-92">
          <mxGeometry width="50" height="50" relative="1" as="geometry">
            <mxPoint x="330" y="631" as="sourcePoint" />
            <mxPoint x="240" y="740" as="targetPoint" />
            <Array as="points" />
          </mxGeometry>
        </mxCell>
        <mxCell id="HZlBNXC_4x1dJygbH-n3-100" value="&lt;div&gt;External VOLUME for userdata (AWS EBS)&lt;br&gt;&lt;/div&gt;" style="rounded=1;whiteSpace=wrap;html=1;" vertex="1" parent="1">
          <mxGeometry x="282" y="1032" width="270" height="40" as="geometry" />
        </mxCell>
        <mxCell id="HZlBNXC_4x1dJygbH-n3-101" style="edgeStyle=orthogonalEdgeStyle;rounded=0;orthogonalLoop=1;jettySize=auto;html=1;exitX=1;exitY=1;exitDx=0;exitDy=0;entryX=0.323;entryY=0.2;entryDx=0;entryDy=0;entryPerimeter=0;" edge="1" parent="1" source="HZlBNXC_4x1dJygbH-n3-9" target="HZlBNXC_4x1dJygbH-n3-100">
          <mxGeometry relative="1" as="geometry" />
        </mxCell>
        <mxCell id="HZlBNXC_4x1dJygbH-n3-109" value="Service:&lt;br&gt;blog&lt;br&gt;gameserver" style="rounded=1;whiteSpace=wrap;html=1;" vertex="1" parent="1">
          <mxGeometry x="174" y="418" width="120" height="60" as="geometry" />
        </mxCell>
        <mxCell id="HZlBNXC_4x1dJygbH-n3-118" value="" style="endArrow=classic;dashed=1;html=1;rounded=0;exitX=0.5;exitY=0;exitDx=0;exitDy=0;strokeWidth=3;endFill=1;entryX=0.5;entryY=0;entryDx=0;entryDy=0;fillColor=#60a917;strokeColor=#2D7600;" edge="1" parent="1" target="HZlBNXC_4x1dJygbH-n3-9">
          <mxGeometry width="50" height="50" relative="1" as="geometry">
            <mxPoint x="240" y="740" as="sourcePoint" />
            <mxPoint x="480" y="800" as="targetPoint" />
          </mxGeometry>
        </mxCell>
        <mxCell id="HZlBNXC_4x1dJygbH-n3-119" value="" style="endArrow=classic;dashed=1;html=1;rounded=0;strokeWidth=3;endFill=1;fillColor=#60a917;strokeColor=#2D7600;" edge="1" parent="1" target="HZlBNXC_4x1dJygbH-n3-4">
          <mxGeometry width="50" height="50" relative="1" as="geometry">
            <mxPoint x="240" y="740" as="sourcePoint" />
            <mxPoint x="480" y="800" as="targetPoint" />
          </mxGeometry>
        </mxCell>
        <mxCell id="HZlBNXC_4x1dJygbH-n3-139" value="" style="group" vertex="1" connectable="0" parent="1">
          <mxGeometry x="431" y="640" width="320" height="338" as="geometry" />
        </mxCell>
        <mxCell id="HZlBNXC_4x1dJygbH-n3-140" value="Worker node2" style="rounded=1;whiteSpace=wrap;html=1;labelPosition=center;verticalLabelPosition=bottom;align=center;verticalAlign=top;" vertex="1" parent="HZlBNXC_4x1dJygbH-n3-139">
          <mxGeometry y="14.083333333333334" width="320" height="323.9166666666667" as="geometry" />
        </mxCell>
        <mxCell id="HZlBNXC_4x1dJygbH-n3-141" value="&lt;div&gt;VOLUME - &lt;br&gt;&lt;/div&gt;&lt;div&gt;gamedata&lt;br&gt;&lt;/div&gt;" style="rounded=1;whiteSpace=wrap;html=1;" vertex="1" parent="HZlBNXC_4x1dJygbH-n3-139">
          <mxGeometry x="204" y="260.0722222222222" width="80" height="37.55555555555556" as="geometry" />
        </mxCell>
        <mxCell id="HZlBNXC_4x1dJygbH-n3-142" value="" style="sketch=0;html=1;dashed=0;whitespace=wrap;fillColor=#2875E2;strokeColor=#ffffff;points=[[0.005,0.63,0],[0.1,0.2,0],[0.9,0.2,0],[0.5,0,0],[0.995,0.63,0],[0.72,0.99,0],[0.5,1,0],[0.28,0.99,0]];verticalLabelPosition=bottom;align=center;verticalAlign=top;shape=mxgraph.kubernetes.icon;prIcon=k_proxy" vertex="1" parent="HZlBNXC_4x1dJygbH-n3-139">
          <mxGeometry x="139" width="50" height="45.06666666666666" as="geometry" />
        </mxCell>
        <mxCell id="HZlBNXC_4x1dJygbH-n3-143" value="" style="sketch=0;html=1;dashed=0;whitespace=wrap;fillColor=#2875E2;strokeColor=#ffffff;points=[[0.005,0.63,0],[0.1,0.2,0],[0.9,0.2,0],[0.5,0,0],[0.995,0.63,0],[0.72,0.99,0],[0.5,1,0],[0.28,0.99,0]];verticalLabelPosition=bottom;align=center;verticalAlign=top;shape=mxgraph.kubernetes.icon;prIcon=kubelet" vertex="1" parent="HZlBNXC_4x1dJygbH-n3-139">
          <mxGeometry x="249" width="50" height="45.06666666666666" as="geometry" />
        </mxCell>
        <mxCell id="HZlBNXC_4x1dJygbH-n3-144" value="Container runtime, controlled by kubelet" style="shape=image;html=1;verticalAlign=top;verticalLabelPosition=bottom;labelBackgroundColor=none;imageAspect=0;aspect=fixed;image=https://cdn1.iconfinder.com/data/icons/unicons-line-vol-3/24/docker-128.png;align=left;" vertex="1" parent="HZlBNXC_4x1dJygbH-n3-139">
          <mxGeometry x="19" y="262.8888888888889" width="38.49444444444445" height="38.49444444444445" as="geometry" />
        </mxCell>
        <mxCell id="HZlBNXC_4x1dJygbH-n3-145" value="" style="group" vertex="1" connectable="0" parent="HZlBNXC_4x1dJygbH-n3-139">
          <mxGeometry x="19" y="165.24444444444444" width="120" height="56.333333333333336" as="geometry" />
        </mxCell>
        <mxCell id="HZlBNXC_4x1dJygbH-n3-146" value="Pod" style="rounded=1;whiteSpace=wrap;html=1;labelPosition=center;verticalLabelPosition=bottom;align=center;verticalAlign=top;" vertex="1" parent="HZlBNXC_4x1dJygbH-n3-145">
          <mxGeometry y="-1.8777777777777778" width="120" height="56.333333333333336" as="geometry" />
        </mxCell>
        <mxCell id="HZlBNXC_4x1dJygbH-n3-147" value="Blog - container" style="rounded=1;whiteSpace=wrap;html=1;" vertex="1" parent="HZlBNXC_4x1dJygbH-n3-145">
          <mxGeometry x="20" y="8.45" width="80" height="37.55555555555556" as="geometry" />
        </mxCell>
        <mxCell id="HZlBNXC_4x1dJygbH-n3-148" value="" style="group" vertex="1" connectable="0" parent="HZlBNXC_4x1dJygbH-n3-139">
          <mxGeometry x="179" y="167.12222222222223" width="120" height="56.333333333333336" as="geometry" />
        </mxCell>
        <mxCell id="HZlBNXC_4x1dJygbH-n3-149" value="Pod" style="rounded=1;whiteSpace=wrap;html=1;labelPosition=center;verticalLabelPosition=bottom;align=center;verticalAlign=top;" vertex="1" parent="HZlBNXC_4x1dJygbH-n3-148">
          <mxGeometry y="-1.8777777777777778" width="120" height="56.333333333333336" as="geometry" />
        </mxCell>
        <mxCell id="HZlBNXC_4x1dJygbH-n3-150" value="Gameserver - container" style="rounded=1;whiteSpace=wrap;html=1;" vertex="1" parent="HZlBNXC_4x1dJygbH-n3-148">
          <mxGeometry x="20" y="8.45" width="80" height="37.55555555555556" as="geometry" />
        </mxCell>
        <mxCell id="HZlBNXC_4x1dJygbH-n3-151" style="edgeStyle=orthogonalEdgeStyle;rounded=0;orthogonalLoop=1;jettySize=auto;html=1;exitX=0.75;exitY=1;exitDx=0;exitDy=0;entryX=0.813;entryY=0;entryDx=0;entryDy=0;entryPerimeter=0;" edge="1" parent="HZlBNXC_4x1dJygbH-n3-139" source="HZlBNXC_4x1dJygbH-n3-149" target="HZlBNXC_4x1dJygbH-n3-141">
          <mxGeometry relative="1" as="geometry" />
        </mxCell>
        <mxCell id="HZlBNXC_4x1dJygbH-n3-152" value="&lt;div&gt;VOLUME - &lt;br&gt;&lt;/div&gt;&lt;div&gt;blog&lt;br&gt;&lt;/div&gt;" style="rounded=1;whiteSpace=wrap;html=1;" vertex="1" parent="HZlBNXC_4x1dJygbH-n3-139">
          <mxGeometry x="60" y="262.8888888888889" width="80" height="37.55555555555556" as="geometry" />
        </mxCell>
        <mxCell id="HZlBNXC_4x1dJygbH-n3-153" style="edgeStyle=orthogonalEdgeStyle;rounded=0;orthogonalLoop=1;jettySize=auto;html=1;exitX=0.849;exitY=1.006;exitDx=0;exitDy=0;entryX=0.75;entryY=0;entryDx=0;entryDy=0;exitPerimeter=0;" edge="1" parent="HZlBNXC_4x1dJygbH-n3-139" source="HZlBNXC_4x1dJygbH-n3-146" target="HZlBNXC_4x1dJygbH-n3-152">
          <mxGeometry relative="1" as="geometry" />
        </mxCell>
        <mxCell id="HZlBNXC_4x1dJygbH-n3-154" value="" style="endArrow=classic;dashed=1;html=1;rounded=0;exitX=0.5;exitY=0;exitDx=0;exitDy=0;strokeWidth=3;endFill=1;entryX=0.5;entryY=0;entryDx=0;entryDy=0;fillColor=#60a917;strokeColor=#2D7600;" edge="1" parent="1" target="HZlBNXC_4x1dJygbH-n3-149">
          <mxGeometry width="50" height="50" relative="1" as="geometry">
            <mxPoint x="601" y="740" as="sourcePoint" />
            <mxPoint x="841" y="800" as="targetPoint" />
          </mxGeometry>
        </mxCell>
        <mxCell id="HZlBNXC_4x1dJygbH-n3-155" value="" style="endArrow=classic;dashed=1;html=1;rounded=0;strokeWidth=3;endFill=1;fillColor=#60a917;strokeColor=#2D7600;" edge="1" parent="1" target="HZlBNXC_4x1dJygbH-n3-146">
          <mxGeometry width="50" height="50" relative="1" as="geometry">
            <mxPoint x="601" y="740" as="sourcePoint" />
            <mxPoint x="841" y="800" as="targetPoint" />
          </mxGeometry>
        </mxCell>
        <mxCell id="HZlBNXC_4x1dJygbH-n3-99" value="" style="endArrow=none;dashed=1;html=1;rounded=0;exitX=0.7;exitY=0.139;exitDx=0;exitDy=0;exitPerimeter=0;strokeWidth=3;endFill=0;fillColor=#60a917;strokeColor=#2D7600;" edge="1" parent="1">
          <mxGeometry width="50" height="50" relative="1" as="geometry">
            <mxPoint x="245" y="522" as="sourcePoint" />
            <mxPoint x="600" y="740" as="targetPoint" />
            <Array as="points">
              <mxPoint x="595" y="522" />
            </Array>
          </mxGeometry>
        </mxCell>
        <mxCell id="aNJpdvHtjKHi667cwxjO-1" style="rounded=0;orthogonalLoop=1;jettySize=auto;html=1;fontColor=#FFFFFF;fillColor=#d80073;strokeColor=#A50040;entryX=0.5;entryY=0;entryDx=0;entryDy=0;entryPerimeter=0;" edge="1" parent="1" target="HZlBNXC_4x1dJygbH-n3-143">
          <mxGeometry relative="1" as="geometry">
            <mxPoint x="700" y="652" as="targetPoint" />
            <mxPoint x="705" y="550" as="sourcePoint" />
          </mxGeometry>
        </mxCell>
        <mxCell id="HZlBNXC_4x1dJygbH-n3-103" style="edgeStyle=orthogonalEdgeStyle;rounded=0;orthogonalLoop=1;jettySize=auto;html=1;entryX=1;entryY=0.5;entryDx=0;entryDy=0;" edge="1" parent="1" source="HZlBNXC_4x1dJygbH-n3-149" target="HZlBNXC_4x1dJygbH-n3-100">
          <mxGeometry relative="1" as="geometry">
            <mxPoint x="604" y="856" as="sourcePoint" />
            <Array as="points">
              <mxPoint x="720" y="1052" />
            </Array>
          </mxGeometry>
        </mxCell>
      </root>
    </mxGraphModel>
  </diagram>
</mxfile>
